<?xml version="1.0" encoding="utf-8"?>
<!-- Generator: Adobe Illustrator 22.0.1, SVG Export Plug-In . SVG Version: 6.00 Build 0)  -->
<svg version="1.1" xmlns="http://www.w3.org/2000/svg" xmlns:xlink="http://www.w3.org/1999/xlink" x="0px" y="0px"
	 viewBox="0 0 818.3 1194.5" style="enable-background:new 0 0 818.3 1194.5;" xml:space="preserve">
<style type="text/css">
	.st0{fill:#00B28C;}
	.st1{fill:#B2360B;stroke:#FFFFFF;stroke-width:3.9077;stroke-miterlimit:10;}
	.st2{fill:#B2360B;stroke:#E0FFE7;stroke-width:3.9077;stroke-miterlimit:10;}
	.st3{fill:#FF6D3A;}
	.st4{fill:#E0FFE7;}
	.st5{font-family:'Coquette';}
	.st6{font-size:40.4493px;}
</style>
<g id="Layer_2">
</g>
<g id="Layer_1">
	<g>
		<g>
			<path class="st0" d="M399.9,102.6c-24.7-0.3-49.5,1.8-73.8,6.6c-24.3,4.8-48.1,12.1-70.8,21.9c-22.7,9.8-44.3,22-64.4,36.3
				c-1.3,0.8-2.5,1.8-3.7,2.7l-3.7,2.8l-7.3,5.6c-4.8,3.9-9.4,7.9-14.1,11.8c-4.6,4.1-9,8.4-13.5,12.5l-12.8,13.2
				c-16.5,18-31.3,37.6-43.9,58.3c-12.6,20.7-23.1,42.6-31.4,65.2c-8.3,22.6-14.4,45.8-18.3,69.4c-3.9,23.6-5.5,47.4-5,71.2
				c1.1,47.5,11.5,94.5,30.5,137.6c18.9,43.1,46.3,82.2,80.1,114.5c33.6,32.4,73.6,58,116.7,74.9c43.1,17,89.4,25.3,135.5,24.5
				l17.3-0.8c5.7-0.5,11.5-1.1,17.2-1.6c1.4-0.1,2.9-0.3,4.3-0.6l4.3-0.6l8.5-1.3c0.7-0.1,1.4-0.2,2.1-0.3l2.1-0.4l4.2-0.9l8.4-1.7
				c22.4-5,44.2-12.2,65-21.5c20.8-9.3,40.6-20.7,59.1-33.9c18.5-13.1,35.7-28,51.2-44.4c31.1-32.7,55.9-71.1,72.9-112.5
				c17.1-41.4,26.5-85.9,27.6-131.1c1.1-45.1-5.7-90.6-20.4-134.1c-7.4-21.7-16.7-43-28.1-63.4c-11.4-20.4-24.8-39.9-40.1-58.1
				c-15.3-18.1-32.6-34.9-51.5-49.8c-19-14.9-39.6-27.9-61.6-38.5c-22-10.6-45.2-18.9-69.1-24.6C449.2,106.1,424.6,103,399.9,102.6z
				 M399.9,95.2c50.4-0.8,101.1,7.3,149.4,24.3c48.3,16.9,94.2,42.8,134.2,77.1c39.9,34.2,73.8,77.1,97.2,125.9
				c11.7,24.3,20.9,50.1,27.2,76.6c6.3,26.5,9.8,53.8,10.3,81.1c0.5,27.3-1.7,54.8-6.8,81.8c-5.1,27-13,53.5-23.5,78.9
				c-10.6,25.4-23.8,49.7-39.3,72.3c-0.9,1.5-2,2.8-3,4.2l-3,4.2l-6.1,8.3c-4.2,5.4-8.6,10.7-12.9,16c-4.5,5.2-9.1,10.2-13.7,15.3
				c-4.8,4.9-9.6,9.7-14.4,14.6c-19.8,18.9-41.4,35.8-64.4,50.4c-23,14.6-47.4,26.9-72.7,36.7c-50.6,19.6-104.8,29.1-158.5,28.3
				c-26.9-0.4-53.7-3.4-79.9-9c-26.2-5.6-51.9-13.8-76.5-24.4c-49.1-21.2-93.7-52.3-130.7-90.4C76,728.9,46.8,683.5,27.5,634.4
				c-9.6-24.6-16.8-50.1-21.4-75.9c-4.6-25.9-6.6-52.2-6.1-78.3c1.1-52.3,13-104.2,34.7-151.3c21.6-47.1,52.6-89.3,90.1-123.8
				c37.4-34.6,81-61.8,127.8-80.5C299.4,105.9,349.5,96,399.9,95.2z"/>
		</g>
		<g id="Shape_7_1_">
			<path class="st1" d="M534.8,420.8c0.5-2.9-2.8-5.8-5.6-4.8c-2.8,1-3.6,5.3-1.4,7.3C530,425.2,534.2,423.7,534.8,420.8z"/>
			<path class="st1" d="M289.5,439.6c-0.9,0-1.7-0.2-2.5-0.6c-0.8-0.4-1.5-1.1-1.9-1.8c-1.5-2.5-0.2-6.1,2.5-7.2
				c2.7-1,6.1,0.8,6.6,3.7C294.8,436.5,292.4,439.5,289.5,439.6z"/>
			<path class="st1" d="M417.6,286.3c-3.3-1.2-4.9-5.6-3.2-8.6c1.7-3.1,6.3-4,9-1.9c2.3,1.8,3,5.2,1.6,7.7
				C423.6,286.1,420.3,287.3,417.6,286.3z"/>
			<path class="st1" d="M349.6,276.1c1.4-0.1,2.9,0.3,4,1.3c2.3,2.1,2,6.4-0.6,8.2c-2.6,1.8-6.7,0.4-7.8-2.6
				S346.5,276.4,349.6,276.1z"/>
			<path class="st1" d="M403.7,634.4c-0.6,1-1.5,1.9-2.6,2.4c-2.5,1.2-5.8-0.4-6.8-3s-0.2-5.7,1.7-7.7c0.9-1,2-1.8,3.3-2
				c2.3-0.4,4.6,1.3,5.4,3.5C405.5,629.9,404.9,632.4,403.7,634.4z"/>
			<path class="st1" d="M421.8,317.3c-0.4-2.4,1.1-5,3.4-5.7c2.3-0.7,5.1,0.5,6.1,2.7c1.2,2.6-0.3,6.1-3,7
				C425.6,322.1,422.3,320.1,421.8,317.3z"/>
			<path class="st1" d="M352.1,305.4c1.3-0.2,2.7,0,3.9,0.7c4.1,2.2,3.5,9.4-0.8,11c-4.4,1.6-9.4-3.6-7.7-7.9
				C348.2,307.2,350,305.7,352.1,305.4z"/>
			<path class="st2" d="M415.2,783.1c1.7,18.6,3.3,37.3,5,55.9c2.9,3.2,8.3-0.8,9.4-5c1.1-4.2,0.8-9.3,4.2-12
				c4.5-3.6,11.7,0.6,13.1,6.2c1.4,5.6-0.8,11.3-2.9,16.7c-12,30.9-18.4,64-18.8,97.2c-0.1,6.4-9.4,9-14.7,5.4
				c-5.3-3.6-7.3-10.3-9-16.5c-8-29.9-16-59.8-24-89.6c-2.2-8.1-1.4-20.5,7-20.6c0.4,9.1,7.4,17.5,16.3,19.6
				c6.3-44.6-6.4-89.4-19-132.7c-1.7-5.9-9.2-7.4-15.3-7.8c-13.1-0.9-26.2-1.9-39.3-2.8c-4.6-0.3-9.9-0.5-13.2,2.8
				c-2.7,2.6-3.3,6.5-3.9,10.2c-5.4,38.3-10.9,76.6-16.3,114.9c7.1-1.7,14.3-3.4,21.4-5.1c-4.6,25.3-9.2,50.5-13.8,75.8
				c-0.7,3.6-1.4,7.5-4.1,10.1c-7.9,7.8-20.8-4.6-20.8-15.7s5.6-22.4,2.1-32.9c-2.8-8.3-10.7-14-14.3-22c-3.6-8,2.1-20.9,10.3-17.8
				c7.1-2.1,5.1-13.7-1.1-17.7c-6.2-4.1-14.4-4.4-20.6-8.6c-6.2-4.1-8.1-15.7-0.9-17.7c18.8-5.2,22.1-30.1,21.7-49.6
				c-0.3-13.9-6.5-32.8-20.1-30.1c-6.4,1.3-10.5,7.3-13.8,12.9c-22.9,38.5-40.5,80.1-52.2,123.4c-5.5,20.3-36.7,20.8-51.8,6.2
				c-6.9-6.7-11.9-17-8-25.7c3.9-8.7,19.7-9.7,21.7-0.4c1.3,6,10.6,6.5,14.8,2c4.1-4.5,4.4-11.3,4.5-17.4c0.3-34,0.6-68.1,0.9-102.1
				c0.1-9.5,0.4-19.6,5.9-27.3c25.4-35.4,49.2-71.9,71.2-109.4c4.1-7,6-19-2-20.3c-18.3-2.9-32.9-17.9-40.4-34.9
				s-9.1-35.8-10.7-54.3c-1.7-20-3.3-40-5-60c-0.8-10,1.4-23.8,11.5-24.3c8.4-0.3,13,10.1,12.7,18.5c-0.4,8.4-3.3,17.2-0.2,25
				c5.6,14.3,25.4,14.6,40.6,12.5c0,13.9-28.8,4.2-34.3,17c-3.8,8.7,8.3,16.1,17.8,15.9c9.5-0.3,20.4-3.1,27.5,3.3
				c-7.9,8.9-24.4,6-31.6,15.6c-3.2,4.3-3.6,10.3-2,15.5c4.1,13.5,20.3,20.9,34.2,18.1c13.9-2.8,25-13.7,31.7-26.2
				c13.7-25.7,10.8-56.7,7.5-85.7c-1.7-15-3.4-29.9-5.1-44.9c-1.1-10-5.6-23-15.6-22.2c-7.1,0.5-17.8,6.1-18.4-1
				c0.3-10.6,18.2-3.4,27.6-8.2c8.1-4.1,6.6-17.2-0.4-22.7c-7.1-5.6-16.9-5.8-25.9-5.8c-4-3.1,1.8-9.4,6.9-9
				c5,0.4,10.1,3.4,14.9,1.6c6.4-2.3,7.1-10.9,6.7-17.7c-0.8-13.9-1.7-27.8-2.5-41.7c-0.3-4.8-0.6-9.8-3.2-13.9
				c-5.6-9-20.4-8.7-27.6-0.9c-7.3,7.8-7.9,20-4.5,30.1c-9.9,1.6-19-7.7-20.3-17.6s3-19.7,8.5-28.1c6.1-9.4,14.3-18.2,25-21.3
				c17.4-5.1,36.1,6.7,44.9,22.5c8.9,15.8,10.2,34.5,11.4,52.6c3.1,47.2,6.2,94.4,9.3,141.6c0.3,4.9,2.3,11.4,7.2,11
				c1.6-0.1,3.1-1.1,4.4-2.1c32.2-24,32-71.3,28.8-111.3c-2.5-31-5-62-7.5-93c-0.2-2.7-0.6-5.7-2.5-7.7c-8.9-8.9-25.2,18.1-32.4,7.8
				c23.1-22.9,30.9-57.1,33-89.6c2.1-32.5-0.4-65.5,6.7-97.3c11.6,5.2,12.9,20.8,13.3,33.5c1.4,53.3,14.7,106.2,38.8,153.8
				c-6.8-7.5-19-15.2-25.7-7.5c-2.9,3.3-2.9,8.2-2.8,12.6c1.2,47.1,2.4,94.2,3.5,141.3c0.1,5.9,0.3,12,2.7,17.5
				c2.6,6.2,7.7,10.9,12.4,15.7c14.6,15,26.4,32.6,34.7,51.7c5.9,2.4,9-7,8.3-13.3c-7-67.9-14-135.8-21.1-203.8
				c-2.4-22.8,27.2-38.8,48.6-30.4c21.3,8.4,32.9,32,36.1,54.7c0.9,6.3-3.5,15.9-8.7,12.2c-2.1-15.4-12.7-29.4-27-35.6
				c-2.1-0.9-4.5-1.6-6.5-0.7c-2.7,1.2-3.5,4.7-3.9,7.7c-1.8,13.9-3.7,28.3-0.3,41.9c3.4,13.7,13.3,26.6,27.1,29.4
				c-10.6-0.3-20.7,8.6-21.7,19.2c-1,10.6,7.3,21.2,17.8,22.9c-16.3,5.1-17.6,27.3-15.8,44.2c1.9,17.1,3.7,34.2,5.6,51.2
				c1.7,15.7,3.6,31.9,11.9,45.3c10.9,17.5,32.8,27.4,53.1,24.1s37.9-19.6,42.8-39.7c1-4.1,1.3-9-1.7-12c-3.4-3.4-9-2.6-13.9-2.7
				c-4.8-0.1-10.9-3.3-9.7-8c5.9-3.6,13.5-2,20.4-2.7c6.9-0.7,14.7-7,11.9-13.3c-3-6.7-12.8-4.5-20.1-3.1c-7.3,1.4-17.8-5-13.1-10.7
				c12,5.7,28.1-0.8,32.8-13.2c2.1-5.5,2.9-12.5,8.2-14.8c9.3-3.9,14.6,10.7,14.1,20.7c-1.3,26.4-2.7,53.3-11.9,78.2
				c-9.1,24.8-27.4,47.8-52.6,55.8c-6.6,2.1-14.7,4.3-16.5,10.9c-1.3,4.7,1.3,9.5,3.8,13.7c23.4,38.4,49.3,75.4,77.4,110.6
				c7.1,8.9,14.5,17.9,18.5,28.6c4.2,11.1,4.4,23.2,4.6,35.1c0.4,25.3,0.7,50.6,1.1,75.9c0.2,10.5,0.8,22.2,8.3,29.5
				c7.5,7.3,24,4.1,23.9-6.4c9,8.1,3.9,24.9-7.3,29.6c-11.2,4.7-24.5-0.6-32.8-9.4c-8.3-8.8-12.7-20.5-16.9-31.8
				c-11.9-32.3-23.9-64.7-35.8-97c-3.7-10.1-15.1-22.2-22.6-14.4c-2.2,2.3-2.8,5.6-3.3,8.7c-4.3,29.2-0.9,59.5,9.6,87.1
				c-11.1,1.5-19.4,13.7-16.8,24.5c7.3-1.1,14.6-2.1,21.9-3.2c-3.9,28.5-12.1,56.4-24.4,82.4c-6.7-27.7-15.9-54.7-27.5-80.7
				c5.6-0.1,11.2-0.3,16.9-0.4c4.7-11.5-7.4-22.3-12.9-33.4c-7.6-15.3-2.6-33.4-2.3-50.4c0.3-17-9.2-37.9-26.2-37.2
				c-14,0.6-28.1,1.1-42.1,1.7c-10.6,0.4-23.3,2.2-27.6,11.8c-3.3,7.3-0.1,15.7,1.5,23.5c1.6,7.9,0,18.2-7.7,20.4
				C415.4,757.7,414.3,772.1,415.2,783.1 M408,596.1c-3.5,2.7-4.1,7.7-6.7,11.2c-2.6,3.5-10.1,3.5-9.7-0.9
				c0.6-6.2-5.5-11.4-11.7-12.3c-6.2-0.8-12.3,1.5-18.1,3.7c-9.5,3.7-18.9,7.4-28.4,11.1c-4.9,1.9-10.1,4.1-13.2,8.4
				c-2.7,3.9-3.3,8.9-3.7,13.6c-0.8,8.1-1.5,16.6,1.1,24.3c2.6,7.7,9.6,14.6,17.8,14.5c15.7-0.3,31.4-0.7,47.1-1
				c2.5-0.1,5.1-0.1,7.2-1.5c2.8-1.8,4-5.3,5-8.5c1-3.2,2.4-6.7,5.5-8.1c3-1.4,7.7,1.2,6.6,4.4c-1.3,3.9,1.4,8.3,5,10.2
				c3.6,2,7.9,2.1,12.1,2.2c12.2,0.4,24.3,0.7,36.5,1.1c3.4,0.1,7.3,0,9.5-2.6c1.9-2.3,1.8-5.6,1.5-8.5c-0.8-9.5-1.6-19-2.5-28.5
				c-0.3-3.6-0.7-7.3-2.4-10.4c-2.9-5.2-8.8-7.8-14.3-10.1c-9.6-3.9-19.2-7.8-28.8-11.7C418.4,594.7,412.3,592.8,408,596.1
				 M350,538.5c-0.4,5.5-0.6,10.9-0.8,16.4c-0.1,5.6,0.9,12.6,6.3,14.2c1.8,0.5,3.8,0.2,5.6-0.1c21.1-3.1,42.8-2.1,63.5,2.8
				c3.4,0.8,6.9-1.8,8.2-5.1c1.3-3.2,1.1-6.9,0.8-10.4c-0.4-4.6-0.7-9.1-1.1-13.7c-0.4-5.2-1.3-11.1-5.7-13.7
				c-2.3-1.4-5.2-1.5-7.9-1.5c-17.5-0.4-35-0.9-52.4-1.3c-5.3-0.1-11.5,0.2-14.5,4.5C350.5,532.9,350.2,535.8,350,538.5
				 M456.6,544.4c0.8,7.3,1.6,14.6,2.5,21.9c0.6,5.4,1.5,11.4,5.5,15.1c2.5,2.3,5.8,3.4,8.9,4.6c16.4,5.8,32,13.7,46.4,23.4
				c3.4,2.3,8.2-1.3,8.7-5.3c0.5-4-1.7-7.8-3.8-11.3c-9-14.8-18.1-29.7-27.1-44.5c-3.2-5.3-6.4-10.6-10.9-14.8
				c-4.5-4.2-10.3-7.3-16.5-7.2s-12.3,4.3-13.7,10.3C456,539.2,456.3,541.8,456.6,544.4 M428.3,504.6c8.2-0.8,16.4-1.5,24.7-2.3
				c4.5-0.4,9.6-1.2,11.9-5.1c2.9-5.1-1.1-11.2-4.9-15.7c-14.6-17.5-27.6-36.3-38.8-56.1c-1.7-3.1-3.5-6.3-6.4-8.3
				c-2.9-2.1-7.2-2.6-9.8-0.2c-3.1,2.8-2.4,7.6-1.5,11.7c3.7,17.8,5.4,36,5,54.2c-0.2,7.3,0,16,6.1,20.1
				C418.5,505.4,423.6,505,428.3,504.6 M355.9,504c8.7,0.7,17.5,1.3,26.2,2c3.6,0.3,7.5,0.5,10.5-1.6c4-2.7,4.7-8.3,4.9-13.2
				c0.8-22.1-1-44.2-5.3-65.9c-0.8-4.2-6.9-5.4-10.5-3.1c-3.6,2.3-5.4,6.6-7,10.6c-7.1,17.3-16.1,33.7-27,48.8
				c-3.7,5.2-7.7,12.1-4.2,17.4C345.9,502.9,351.2,503.7,355.9,504 M324.9,536c-1.4-3.9-6-5.9-10.1-5.5c-4.1,0.4-7.7,2.7-10.9,5.4
				c-7.2,6.1-12.6,14.1-17.5,22.1c-9.9,16.2-18.4,33.3-30.3,48.1c-1.8,2.2-3.7,4.6-4.3,7.4c-0.6,2.8,0.9,6.3,3.7,6.8
				c3.7,1.4,7.6-1.4,10.6-4c15.6-13.1,33.1-23.9,51.9-31.8c5.6-2.4,6.6-9.7,6.7-15.8c0.2-9.1,0.4-18.2,0.7-27.3
				C325.5,539.7,325.5,537.7,324.9,536 M479.1,636.3c0.5,5.4,1.1,10.9,1.6,16.3c0.5,4.7,1.1,9.9,4.6,13.2c4,3.8,10.2,3.7,15.7,3.3
				c9.4-0.6,18.8-1.2,28.2-1.8c3-0.2,6.1-0.4,8.6-2.1c2.5-1.6,4-5.2,2.4-7.7c-0.7-1-1.7-1.7-2.8-2.4c-13.4-8.6-26.8-17.1-40.2-25.7
				c-2.7-1.7-5.5-3.5-8.7-4.1s-6.8,0.4-8.5,3.1C478.6,630.8,478.8,633.6,479.1,636.3 M292.1,665.5c3.3,0.6,6.7,1.2,9.9,0.3
				c3.2-0.9,6.1-3.9,5.7-7.2c-0.8-6.3-1.5-12.6-2.3-18.9c-0.4-3.3-0.9-6.9-3.4-9.1c-2.5-2.3-6.4-2.5-9.6-1.3
				c-3.2,1.2-5.9,3.4-8.4,5.7c-3.2,2.8-6.4,5.5-9.6,8.3c-4.1,3.5-8.5,8.5-6.6,13.5c1.6,4.1,6.6,5.4,10.9,6.2
				C283.1,663.8,287.6,664.7,292.1,665.5 M339.3,572.6c2.4-1.3,2.9-4.6,3-7.3c0.4-6.8,0.8-13.5,1.2-20.3c0.2-4.1-0.7-9.6-4.7-10
				c-4.2-0.4-6,5.2-6.3,9.4c-0.4,5.5-0.9,11-1.3,16.5c-0.2,2.9-0.4,6.1,0.9,8.7C333.3,572.2,336.7,574.1,339.3,572.6 M451.1,570.4
				c0.8-7.6,0.4-15.3-1.1-22.7c-0.2-0.8-0.4-1.7-0.9-2.3c-2-2.3-6.2,0-8.7-1.8c-0.6,10.2,0.2,20.4,2.3,30.4
				C444.6,571.5,447.9,570.1,451.1,570.4z"/>
		</g>
	</g>
	<g>
		<path class="st3" d="M176.6,1044.8c-5.5-26.8-11.5-53.6-20.4-79.5c-7.2-20.9-17-47.9-38.2-58.5c-9.2-4.6-19.7-4.2-28.1,1.9
			c-9.9,7.2-13.7,18.9-16,30.4c-1.8,8.9,11.9,12.7,13.7,3.8c1.8-8.9,4.5-22.1,14.8-24.8c9.1-2.4,17.5,6.8,22.4,13.3
			c13,17.4,19.3,40.1,25,60.7c6,21.7,10.9,43.8,15.1,65.9c2.8,14.5,4.8,29.1,5.1,43.8c-22.9-44-46.3-87.7-73.2-129.4
			c-4.3-6.8-14.8-2.5-12.9,5.5c8.4,36,12.8,72.7,13.4,109.7c0.1,9.1,14.3,9.1,14.2,0c-0.4-25.1-2.5-50.1-6.4-74.9
			c23,38.9,43.9,79,64.6,119.2c3.6,6.9,12.4,2.7,13.2-3.6C186.5,1100.2,182.2,1072.2,176.6,1044.8z"/>
		<path class="st3" d="M246.9,1076.3c-6.7,10-20.5,4.6-27.4-2c-5.7-5.4-11.4-12.9-14.4-20.8c10.6,0,21.1,0,31.7,0
			c4.1,0,9.4,0.8,12.9-1.9c3.6-2.7,4.2-7.2,3.2-11.3c-2.5-9.5-7.4-20-11.7-28.8c-3.8-7.7-10.6-13-19.4-12.6
			c-18.1,0.8-30.5,22.8-32.5,38.7c-2.2,17.9,8.6,36.6,21.8,48.1c14.1,12.3,36.7,14.8,48.1-2.3C264.2,1075.9,252,1068.8,246.9,1076.3
			z M220.5,1013.4c7.4-1.7,9.3,7.2,11.4,12.4c1.4,3.3,2.7,6.7,4.1,10l1.6,4c-4.8,0.1-9.8-0.4-14.3-0.4c-6.7,0-13.3,0-20,0
			C204.7,1029.5,211,1015.6,220.5,1013.4z"/>
		<path class="st3" d="M322,1040.8c-1.4-12.5-10.6-19-20-25.9c-11-8.1-22.4-15.4-34.2-22.2c-5.7-3.3-11.5,2.1-10.4,8
			c7.2,39.7,11.3,79.7,12.4,120c-5.7-1.6-11.8-1.6-18,0.4c-8.6,2.8-4.9,16.4,3.8,13.7c5.8-1.9,11.7-1.4,16.6,2.5
			c4.5,3.6,12.2,1.6,12.1-5c-0.2-13.1-0.7-26.1-1.5-39.1c1.2-0.5,2.4-1.4,3.3-2.8c5.4-8.6,16.7-11.7,24-18.4
			C318.4,1064.1,323.2,1052.2,322,1040.8z M281.4,1074.9c-1.8-20.8-4.3-41.5-7.6-62.1c5,3.2,10,6.4,14.9,9.9
			c7.9,5.5,19.8,11.4,19.4,22.4C307.5,1060.9,292.3,1066.2,281.4,1074.9z"/>
		<path class="st3" d="M424,990.5H309.3c-9.1,0-9.1,14.2,0,14.2h33.9c0.1,37.5,0.1,75,0.2,112.6c0,9.1,14.2,9.1,14.2,0
			c-0.1-37.5-0.1-75-0.2-112.6H424C433.1,1004.7,433.1,990.5,424,990.5z"/>
		<path class="st3" d="M436.8,1030.1c-6.4-6.6-16.4,3.5-10,10c11.6,12,14.1,44.3-9.1,42.8c-10.3-0.7-23.3-4-26.5-15.1
			c-3.2-11.1,0.8-23.7-0.8-35.2c-1.3-9-14.9-5.2-13.7,3.8c2.3,16.6-5.2,34.2,8,48c9.8,10.3,27.7,14.6,41.5,12.4
			c14-2.2,21.5-15.9,23.2-28.9C451.2,1054,446.6,1040.1,436.8,1030.1z"/>
		<path class="st3" d="M515.9,1061.2c-2.6-18.8-10.2-36.7-11.3-55.8c-0.5-9.1-14.7-9.1-14.2,0c0.8,13.9,4.5,27.1,7.9,40.5
			c1.7,6.8,3.4,13.8,4.1,20.8c0.3,3.2,0.4,6.4,0.3,9.6c-0.1,1.6,0,3.5-0.4,5.1c-0.4,1.5,1.9,3-1.6,1.3c-5.4-2.6-9-9.1-12.1-14
			c-3.7-5.9-6.9-12.2-9.4-18.7c-5.1-13.4-7.5-27.4-7.3-41.6c0-1.1-0.2-2.1-0.5-2.9c0-2.1,0-4.2,0.1-6.3c0.1-9.1-14-9.1-14.2,0
			c-0.5,30.2,0.4,60.4,2.5,90.6c0.6,9,14.8,9.1,14.2,0c-0.5-6.6-0.9-13.1-1.2-19.7c6,11.8,14.8,25.1,27.2,27
			C519.7,1099.8,517.6,1073.7,515.9,1061.2z"/>
		<path class="st3" d="M607.7,1042.8c-10-15.3-23-35-40.5-42.4c-17.5-7.4-33.8,2-38.7,19.7c-1.9,6.8-2.7,14.3-2.3,21.9
			c-2.3,3.1-1.9,8.1,1.4,10.4c1.5,6.9,4.2,13.4,8.2,18.8c5.7,7.7,12.7,10.3,22,10.6c11.6,0.3,23.2,0.2,34.7,0.3
			c9.1,0.1,9.1-14.1,0-14.2c-7.6-0.1-15.1-0.1-22.7-0.2c-6.1-0.1-15.5,1.7-20.4-2.4c-3.5-2.9-5.8-7.1-7.2-11.8c19.8,0,39.6,0,59.4,0
			C606.7,1053.5,610.7,1047.4,607.7,1042.8z M548.4,1013.6c6.1-4,13.9-0.7,19.2,3.2c8,5.9,14.8,14.1,20.7,22.5c-16,0-32,0-47.9,0
			c0-4.2,0.4-8.2,1-11.5C542.1,1022.7,543.8,1016.6,548.4,1013.6z"/>
		<path class="st3" d="M754.1,1128.2c-6.9-17.7-16-34.4-28-49.2c-5.3-6.5-11.5-12.3-19.3-15.6c-8.9-3.7-18.1-2.7-27.5-2.6
			c-16.8,0.1-36.9-6.4-41.3-24.8c-1.8-7.5-0.3-15.7,6.3-20.3c5-3.5,12.8-4.9,17.9-0.9c7.1,5.6,17.1-4.3,10-10
			c-13.6-10.8-33.8-7.3-43.7,7c-10.9,15.9-4.2,38.3,9.7,50c7.9,6.6,17.7,10.5,27.9,12.1c10.8,1.7,22.7-1.3,33.2,1.7
			c10.5,3.1,17.9,14,23.7,22.6c1.5,2.2,2.8,4.3,4.2,6.6c-9.9-6.8-20.4-12.6-32.3-16.2c-22.6-6.8-47.9-8.1-71.3-6.8
			c-23.7,1.3-46.2,7.6-67.2,18.8c-13.6,7.3-26,16.3-38.2,25.7c-16.3-9.1-33.5-16.7-52.3-18.8c-21.2-2.4-44,3.4-58.4,19.9
			c-12.1,13.8-18.9,36.4-6.9,52.5c13.4,18,42.8,9.4,59.9,2.3c22.1-9.2,40.7-24,59.4-38.7c6.8,4.1,13.4,8.3,20.1,12.3
			c23.1,13.9,47.3,28,73.4,35.5c22.6,6.5,48.9,4,63.1-16.8c5.1-7.6-7.1-14.6-12.2-7.1c-14.6,21.5-45.1,12.2-64.5,4.1
			c-23.5-9.8-45.3-23.4-67-36.6c-0.3-0.2-0.6-0.4-0.9-0.5c15.9-12.1,32.3-23.3,51.5-30.3c27.1-9.8,56.9-9.8,85.2-6.3
			c13.6,1.7,27.4,5,39.5,11.5c12.7,6.8,23.7,16.4,34.5,25.9C747.1,1139.3,756.9,1135.4,754.1,1128.2z M498.3,1142
			c-18.6,14.6-38.9,28.6-62.6,33.1c-10.1,1.9-23,3.3-26.5-8.9c-2.6-9,0.8-18.9,6.2-26.3c13.6-18.6,38.4-21.5,59.4-16.5
			c11,2.6,21.3,7.1,31.2,12.4C503.5,1137.9,500.9,1140,498.3,1142z"/>
		<path class="st3" d="M613.5,976.7c-4.2-5.8-11.3-9-18.5-8c-7.1,1-14.4,6.9-13.1,14.7c1.5,8.9,10.6,10.3,18,8.7
			c1.8-0.4,3.1-1.3,3.9-2.4c0.2,1.3,0.2,2.7,0,3.9c-0.5,3.8,0.9,7.6,4.9,8.7c3.3,0.9,8.2-1.1,8.7-4.9
			C618.5,990.1,617.9,982.8,613.5,976.7z"/>
	</g>
	<g>
		<path class="st4" d="M182.2,1043c-5.5-26.8-11.5-53.6-20.4-79.5c-7.2-20.9-17-47.9-38.2-58.5c-9.2-4.6-19.7-4.2-28.1,1.9
			c-9.9,7.2-13.7,18.9-16,30.4c-1.8,8.9,11.9,12.7,13.7,3.8c1.8-8.9,4.5-22.1,14.8-24.8c9.1-2.4,17.5,6.8,22.4,13.3
			c13,17.4,19.3,40.1,25,60.7c6,21.7,10.9,43.8,15.1,65.9c2.8,14.5,4.8,29.1,5.1,43.8c-22.9-44-46.3-87.7-73.2-129.4
			c-4.3-6.8-14.8-2.5-12.9,5.5c8.4,36,12.8,72.7,13.4,109.7c0.1,9.1,14.3,9.1,14.2,0c-0.4-25.1-2.5-50.1-6.4-74.9
			c23,38.9,43.9,79,64.6,119.2c3.6,6.9,12.4,2.7,13.2-3.6C192.1,1098.4,187.8,1070.4,182.2,1043z"/>
		<path class="st4" d="M252.5,1074.5c-6.7,10-20.5,4.6-27.4-2c-5.7-5.4-11.4-12.9-14.4-20.8c10.6,0,21.1,0,31.7,0
			c4.1,0,9.4,0.8,12.9-1.9c3.6-2.7,4.2-7.2,3.2-11.3c-2.5-9.5-7.4-20-11.7-28.8c-3.8-7.7-10.6-13-19.4-12.6
			c-18.1,0.8-30.5,22.8-32.5,38.7c-2.2,17.9,8.6,36.6,21.8,48.1c14.1,12.3,36.7,14.8,48.1-2.3C269.8,1074.1,257.6,1067,252.5,1074.5
			z M226.1,1011.6c7.4-1.7,9.3,7.2,11.4,12.4c1.4,3.3,2.7,6.7,4.1,10l1.6,4c-4.8,0.1-9.8-0.4-14.3-0.4c-6.7,0-13.3,0-20,0
			C210.3,1027.7,216.6,1013.8,226.1,1011.6z"/>
		<path class="st4" d="M327.6,1039c-1.4-12.5-10.6-19-20-25.9c-11-8.1-22.4-15.4-34.2-22.2c-5.7-3.3-11.5,2.1-10.4,8
			c7.2,39.7,11.3,79.7,12.4,120c-5.7-1.6-11.8-1.6-18,0.4c-8.6,2.8-4.9,16.4,3.8,13.7c5.8-1.9,11.7-1.4,16.6,2.5
			c4.5,3.6,12.2,1.6,12.1-5c-0.2-13.1-0.7-26.1-1.5-39.1c1.2-0.5,2.4-1.4,3.3-2.8c5.4-8.6,16.7-11.7,24-18.4
			C324,1062.3,328.8,1050.4,327.6,1039z M287,1073.1c-1.8-20.8-4.3-41.5-7.6-62.1c5,3.2,10,6.4,14.9,9.9
			c7.9,5.5,19.8,11.4,19.4,22.4C313.1,1059.1,297.9,1064.4,287,1073.1z"/>
		<path class="st4" d="M429.6,988.7H314.9c-9.1,0-9.1,14.2,0,14.2h33.9c0.1,37.5,0.1,75,0.2,112.6c0,9.1,14.2,9.1,14.2,0
			c-0.1-37.5-0.1-75-0.2-112.6h66.6C438.7,1002.9,438.7,988.7,429.6,988.7z"/>
		<path class="st4" d="M442.4,1028.3c-6.4-6.6-16.4,3.5-10,10c11.6,12,14.1,44.3-9.1,42.8c-10.3-0.7-23.3-4-26.5-15.1
			c-3.2-11.1,0.8-23.7-0.8-35.2c-1.3-9-14.9-5.2-13.7,3.8c2.3,16.6-5.2,34.2,8,48c9.8,10.3,27.7,14.6,41.5,12.4
			c14-2.2,21.5-15.9,23.2-28.9C456.8,1052.2,452.2,1038.3,442.4,1028.3z"/>
		<path class="st4" d="M521.5,1059.4c-2.6-18.8-10.2-36.7-11.3-55.8c-0.5-9.1-14.7-9.1-14.2,0c0.8,13.9,4.5,27.1,7.9,40.5
			c1.7,6.8,3.4,13.8,4.1,20.8c0.3,3.2,0.4,6.4,0.3,9.6c-0.1,1.6,0,3.5-0.4,5.1c-0.4,1.5,1.9,3-1.6,1.3c-5.4-2.6-9-9.1-12.1-14
			c-3.7-5.9-6.9-12.2-9.4-18.7c-5.1-13.4-7.5-27.4-7.3-41.6c0-1.1-0.2-2.1-0.5-2.9c0-2.1,0-4.2,0.1-6.3c0.1-9.1-14-9.1-14.2,0
			c-0.5,30.2,0.4,60.4,2.5,90.6c0.6,9,14.8,9.1,14.2,0c-0.5-6.6-0.9-13.1-1.2-19.7c6,11.8,14.8,25.1,27.2,27
			C525.3,1098,523.2,1071.9,521.5,1059.4z"/>
		<path class="st4" d="M613.3,1041c-10-15.3-23-35-40.5-42.4c-17.5-7.4-33.8,2-38.7,19.7c-1.9,6.8-2.7,14.3-2.3,21.9
			c-2.3,3.1-1.9,8.1,1.4,10.4c1.5,6.9,4.2,13.4,8.2,18.8c5.7,7.7,12.7,10.3,22,10.6c11.6,0.3,23.2,0.2,34.7,0.3
			c9.1,0.1,9.1-14.1,0-14.2c-7.6-0.1-15.1-0.1-22.7-0.2c-6.1-0.1-15.5,1.7-20.4-2.4c-3.5-2.9-5.8-7.1-7.2-11.8c19.8,0,39.6,0,59.4,0
			C612.3,1051.7,616.3,1045.6,613.3,1041z M554,1011.8c6.1-4,13.9-0.7,19.2,3.2c8,5.9,14.8,14.1,20.7,22.5c-16,0-32,0-47.9,0
			c0-4.2,0.4-8.2,1-11.5C547.8,1020.9,549.4,1014.8,554,1011.8z"/>
		<path class="st4" d="M759.7,1126.4c-6.9-17.7-16-34.4-28-49.2c-5.3-6.5-11.5-12.3-19.3-15.6c-8.9-3.7-18.1-2.7-27.5-2.6
			c-16.8,0.1-36.9-6.4-41.3-24.8c-1.8-7.5-0.3-15.7,6.3-20.3c5-3.5,12.8-4.9,17.9-0.9c7.1,5.6,17.1-4.3,10-10
			c-13.6-10.8-33.8-7.3-43.7,7c-10.9,15.9-4.2,38.3,9.7,50c7.9,6.6,17.7,10.5,27.9,12.1c10.8,1.7,22.7-1.3,33.2,1.7
			c10.5,3.1,17.9,14,23.7,22.6c1.5,2.2,2.8,4.3,4.2,6.6c-9.9-6.8-20.4-12.6-32.3-16.2c-22.6-6.8-47.9-8.1-71.3-6.8
			c-23.7,1.3-46.2,7.6-67.2,18.8c-13.6,7.3-26,16.3-38.2,25.7c-16.3-9.1-33.5-16.7-52.3-18.8c-21.2-2.4-44,3.4-58.4,19.9
			c-12.1,13.8-18.9,36.4-6.9,52.5c13.4,18,42.8,9.4,59.9,2.3c22.1-9.2,40.7-24,59.4-38.7c6.8,4.1,13.4,8.3,20.1,12.3
			c23.1,13.9,47.3,28,73.4,35.5c22.6,6.5,48.9,4,63.1-16.8c5.1-7.6-7.1-14.6-12.2-7.1c-14.6,21.5-45.1,12.2-64.5,4.1
			c-23.5-9.8-45.3-23.4-67-36.6c-0.3-0.2-0.6-0.4-0.9-0.5c15.9-12.1,32.3-23.3,51.5-30.3c27.1-9.8,56.9-9.8,85.2-6.3
			c13.6,1.7,27.4,5,39.5,11.5c12.7,6.8,23.7,16.4,34.5,25.9C752.7,1137.5,762.5,1133.6,759.7,1126.4z M503.9,1140.2
			c-18.6,14.6-38.9,28.6-62.6,33.1c-10.1,1.9-23,3.3-26.5-8.9c-2.6-9,0.8-18.9,6.2-26.3c13.6-18.6,38.4-21.5,59.4-16.5
			c11,2.6,21.3,7.1,31.2,12.4C509.1,1136.1,506.6,1138.2,503.9,1140.2z"/>
		<path class="st4" d="M619.1,974.9c-4.2-5.8-11.3-9-18.5-8c-7.1,1-14.4,6.9-13.1,14.7c1.5,8.9,10.6,10.3,18,8.7
			c1.8-0.4,3.1-1.3,3.9-2.4c0.2,1.3,0.2,2.7,0,3.9c-0.5,3.8,0.9,7.6,4.9,8.7c3.3,0.9,8.2-1.1,8.7-4.9
			C624.1,988.3,623.5,981,619.1,974.9z"/>
	</g>
	<text transform="matrix(1 0 0 1 119.3842 1182.9371)" class="st3 st5 st6">Lounge Room</text>
</g>
</svg>
